<svg width="184" height="84" viewBox="0 0 184 84" fill="none" xmlns="http://www.w3.org/2000/svg">
<path d="M76.9932 35.4424C71.5107 35.9619 66.0898 36.5361 60.7305 37.165C51.6934 52.8193 42.3281 68.0361 32.6348 82.8154C32.3477 83.1982 32.0264 83.3691 31.6709 83.3281C31.3291 83.3008 31.0557 83.1367 30.8506 82.8359C30.6455 82.5352 30.625 82.1729 30.7891 81.749C34.166 74.0518 37.9258 66.5801 42.0684 59.334C46.2246 52.0742 50.5586 44.917 55.0703 37.8623C45.1719 39.1201 35.3008 40.6787 25.457 42.5381C23.5703 45.6826 21.6904 48.834 19.8174 51.9922C14.5127 61.0293 9.04395 69.9502 3.41113 78.7549C3.02832 79.2881 2.58398 79.5273 2.07812 79.4727C1.57227 79.4316 1.17578 79.1992 0.888672 78.7754C0.587891 78.3516 0.560547 77.8389 0.806641 77.2373C3.32227 71.9326 6.07715 66.7441 9.07129 61.6719C12.0791 56.5859 15.1621 51.5547 18.3203 46.5781C18.9492 45.5801 19.5781 44.582 20.207 43.584C16.3242 44.3633 12.4277 45.2041 8.51758 46.1064C7.84766 46.2158 7.3418 46.0586 7 45.6348C6.64453 45.2109 6.50781 44.7324 6.58984 44.1992C6.67188 43.666 7.03418 43.3037 7.67676 43.1123C9.7959 42.6064 11.915 42.1006 14.0342 41.5947C16.9326 40.8975 19.8311 40.207 22.7295 39.5234C22.7432 39.5098 22.75 39.4961 22.75 39.4824C22.7637 39.4688 22.7705 39.4551 22.7705 39.4414C23.249 38.6758 23.7275 37.9033 24.2061 37.124C27.1455 32.3936 30.0371 27.6426 32.8809 22.8711C32.8125 22.9805 32.9424 22.7207 33.2705 22.0918C33.5986 21.4492 34.0225 20.6221 34.542 19.6104C35.0068 18.7354 35.4648 17.8604 35.916 16.9854C36.3672 16.0967 36.7363 15.3652 37.0234 14.791C37.3242 14.2031 37.4678 13.8955 37.4541 13.8682C36.8389 14.0869 36.3262 13.9912 35.916 13.5811C35.5059 13.1572 35.2939 12.6514 35.2803 12.0635C35.2666 11.4756 35.5469 11.0312 36.1211 10.7305C36.4492 10.5801 36.7432 10.4434 37.0029 10.3203C37.7549 10.0059 38.3906 9.80762 38.9102 9.72559C39.4434 9.64355 39.9219 9.67773 40.3457 9.82812C40.3867 9.8418 40.4277 9.85547 40.4688 9.86914C41.3438 10.3066 41.8701 11.0176 42.0479 12.002C42.2256 13.7793 41.2139 16.6299 39.0127 20.5537C36.8252 24.4639 34.5557 28.21 32.2041 31.792C30.8369 33.8291 29.6475 35.6475 28.6357 37.2471C28.5264 37.4248 28.417 37.6094 28.3076 37.8008C28.1982 37.9648 28.0957 38.1357 28 38.3135C37.8984 35.9756 47.8926 34.2939 57.9824 33.2686C58.4609 32.5029 58.9395 31.7441 59.418 30.9922C64.709 22.8027 69.8291 14.5176 74.7783 6.13672C75.0518 5.69922 75.3936 5.50098 75.8037 5.54199C76.2139 5.58301 76.5352 5.77441 76.7676 6.11621C77.0137 6.45801 77.0342 6.86133 76.8291 7.32617C72.5361 15.8574 67.9834 24.375 63.1709 32.8789C67.751 32.6191 72.3584 32.6191 76.9932 32.8789C77.5537 32.9336 77.9229 33.1592 78.1006 33.5557C78.292 33.9385 78.292 34.335 78.1006 34.7451C77.9092 35.1416 77.54 35.374 76.9932 35.4424ZM158.676 22.748C156.051 22.666 153.446 22.5771 150.862 22.4814C139.884 21.9756 128.994 21.791 118.193 21.9277C112.191 30.2539 106.278 38.6484 100.454 47.1113C97.9248 50.8164 95.4434 54.583 93.0098 58.4111C90.3164 62.6357 87.5547 66.8057 84.7246 70.9209C81.8945 75.0361 78.8594 78.9668 75.6191 82.7129C75.2637 83.082 74.9014 83.2119 74.5322 83.1025C74.1631 82.9932 73.876 82.7539 73.6709 82.3848C73.4795 82.0156 73.4658 81.6191 73.6299 81.1953C76.3369 75.6172 79.4678 70.1963 83.0225 64.9326C86.5771 59.6826 90.2412 54.5215 94.0146 49.4492C96.1611 46.5508 98.2598 43.666 100.311 40.7949C101.801 38.6895 103.182 36.748 104.453 34.9707C105.725 33.1934 107.119 31.2656 108.637 29.1875C103.291 34.957 98.1504 40.002 93.2148 44.3223C88.293 48.6426 84.0273 51.4248 80.418 52.6689C78.3262 53.3936 76.2207 53.4824 74.1016 52.9355C73.0488 54.4805 71.832 55.7793 70.4512 56.832C69.0703 57.8711 67.6758 58.3906 66.2676 58.3906C64.1484 58.2539 62.7881 57.3037 62.1865 55.54C61.5713 53.7764 61.5645 51.9854 62.166 50.167C62.959 47.8701 64.21 45.874 65.9189 44.1787C67.6143 42.4834 69.6855 41.4033 72.1328 40.9385C72.7617 40.8564 73.2607 41 73.6299 41.3691C75.2979 41.8066 76.2822 42.7568 76.583 44.2197C76.8975 45.6689 76.7197 47.3096 76.0498 49.1416C77.8818 50.167 80.6982 49.4219 84.499 46.9062C88.3135 44.377 92.5723 40.8633 97.2754 36.3652C101.979 31.8535 106.586 27.123 111.098 22.1738C103.934 22.5156 96.708 23.2949 89.4209 24.5117C88.7236 24.5938 88.1836 24.3955 87.8008 23.917C87.4316 23.4385 87.2881 22.9258 87.3701 22.3789C87.4658 21.832 87.8555 21.4766 88.5391 21.3125C97.125 19.8496 105.827 18.8379 114.646 18.2773C120.729 11.4414 125.091 6.38965 127.729 3.12207C127.894 2.90332 128.058 2.69141 128.222 2.48633C128.427 2.18555 128.639 1.8916 128.857 1.60449C129.008 1.42676 129.165 1.2832 129.329 1.17383C129.562 0.955078 129.828 0.866211 130.129 0.907227C130.799 0.879883 131.332 1.10547 131.729 1.58398C132.139 2.04883 132.139 2.61621 131.729 3.28613C128.406 7.81152 125.104 12.3574 121.823 16.9238C121.563 17.2793 121.311 17.6348 121.064 17.9902C133.875 17.498 146.521 18.2637 159.004 20.2871C159.469 20.3965 159.749 20.6494 159.845 21.0459C159.954 21.4424 159.899 21.8252 159.681 22.1943C159.476 22.5635 159.141 22.748 158.676 22.748ZM72.9736 46.8242C73.124 46.3594 73.2197 45.9492 73.2607 45.5938C73.3154 45.2383 73.2607 45.0332 73.0967 44.9785C72.8096 44.9238 72.5225 44.8691 72.2354 44.8145C72.0713 44.7871 71.9072 44.7598 71.7432 44.7324C69.4189 45.6758 67.7168 47.3027 66.6367 49.6133C66.5957 49.7227 66.5 50.0439 66.3496 50.5771C66.1992 51.0967 66.0693 51.6709 65.96 52.2998C65.8369 52.9287 65.7891 53.4551 65.8164 53.8789C65.8438 54.3027 66.0078 54.4805 66.3086 54.4121C68.3867 53.6191 70.0684 52.2451 71.3535 50.29C71.3535 50.2764 71.3467 50.2695 71.333 50.2695C71.1963 50.0234 71.0527 49.791 70.9023 49.5723C70.4102 48.7383 70.4307 48.0479 70.9639 47.501C71.4971 46.9404 72.167 46.7148 72.9736 46.8242ZM172.047 3.61426C172.525 3.51855 172.963 3.62109 173.359 3.92188C173.756 4.22266 174.009 4.62598 174.118 5.13184C174.228 5.6377 174.091 6.12988 173.708 6.6084C163.14 18.9404 153.439 31.9219 144.607 45.5527C141.367 50.6387 138.332 55.8613 135.502 61.2207C132.207 67.5098 128.611 73.5596 124.715 79.3701C124.51 79.6436 124.271 79.7803 123.997 79.7803C123.737 79.7803 123.512 79.6846 123.32 79.4932C123.129 79.3018 123.061 79.0352 123.115 78.6934C124.441 72.6504 126.807 66.7441 130.211 60.9746C133.615 55.1914 137.204 49.6953 140.978 44.4863C141.962 43.0781 142.926 41.6904 143.869 40.3232C145.277 38.2725 146.549 36.4268 147.684 34.7861C148.832 33.1455 150.138 31.3203 151.601 29.3105C146.733 34.5605 142.071 39.3525 137.614 43.6865C133.157 48.0205 128.639 51.6914 124.059 54.6992C122.486 55.752 120.647 56.6748 118.542 57.4678C116.45 58.2471 114.44 58.4316 112.513 58.0215C110.106 57.2422 108.664 55.7725 108.186 53.6123C107.707 51.4521 108.008 49.2988 109.088 47.1523C109.635 46.0996 110.619 44.9102 112.041 43.584C113.463 42.2578 114.967 41.376 116.553 40.9385C118.139 40.501 119.458 41.0752 120.511 42.6611C121.345 44.2334 121.352 45.7441 120.531 47.1934C119.711 48.6426 118.48 49.9072 116.84 50.9873C115.199 52.0674 113.572 52.8262 111.959 53.2637C112.902 55.3828 114.912 55.7588 117.988 54.3916C121.064 53.0244 124.763 50.5225 129.083 46.8857C133.417 43.249 137.936 39.0928 142.639 34.417C147.342 29.7275 151.785 25.1338 155.969 20.6357C160.166 16.124 163.673 12.3164 166.489 9.21289C169.347 6.04102 171.028 4.23633 171.534 3.79883C171.698 3.67578 171.869 3.61426 172.047 3.61426ZM115.363 45.5732C114.078 46.4072 113.06 47.5693 112.308 49.0596C112.513 48.9502 112.766 48.7998 113.066 48.6084C113.367 48.4033 113.647 48.2051 113.907 48.0137C114.181 47.8223 114.379 47.6787 114.502 47.583C115.172 47.0771 115.732 46.5645 116.184 46.0449C116.648 45.5117 116.847 45.1631 116.778 44.999C116.724 44.8213 116.252 45.0127 115.363 45.5732ZM182.403 45.4707C178.384 46.8652 174.747 48.335 171.493 49.8799C168.253 51.4248 164.862 53.3936 161.321 55.7861C161.964 56.7979 162.285 57.9463 162.285 59.2314C162.23 62.3623 160.87 64.8711 158.204 66.7578C157.384 67.3867 156.29 68.0977 154.923 68.8906C153.556 69.6973 152.12 70.3398 150.616 70.8184C149.112 71.3105 147.759 71.3994 146.556 71.085C145.339 70.7842 144.484 69.8408 143.992 68.2549C143.65 66.7373 144.061 65.2197 145.223 63.7021C146.385 62.1846 147.827 60.7832 149.55 59.498C151.259 58.1992 152.763 57.1396 154.062 56.3193C154.349 56.1279 154.602 55.957 154.82 55.8066C154.697 55.6699 154.581 55.5332 154.472 55.3965C153.692 54.4531 153.077 53.5371 152.626 52.6484C152.161 51.7461 151.833 50.6934 151.642 49.4902C151.396 47.1797 152.045 45.2178 153.59 43.6045C155.121 41.9775 156.905 40.8701 158.942 40.2822C159.804 40.0771 160.467 40.2139 160.932 40.6924C161.396 41.1572 161.615 41.7451 161.588 42.4561C161.561 43.167 161.239 43.7754 160.624 44.2812C159.038 45.5254 158.054 46.6465 157.671 47.6445C157.302 48.6289 157.309 49.5586 157.691 50.4336C158.088 51.3086 158.648 52.1768 159.373 53.0381C163.188 50.7686 166.817 48.875 170.263 47.3574C173.722 45.8398 177.543 44.3906 181.727 43.0098C182.26 42.873 182.663 42.9688 182.937 43.2969C183.224 43.625 183.333 44.0146 183.265 44.4658C183.196 44.917 182.909 45.252 182.403 45.4707ZM155.825 63.8867C157.138 62.752 157.855 61.7197 157.979 60.79C158.102 59.8604 157.903 59.0811 157.384 58.4521C155.675 59.6143 154.034 60.8516 152.462 62.1641C152.312 62.2871 152.168 62.4102 152.031 62.5332C151.088 63.2852 150.206 64.1055 149.386 64.9941C147.567 67.1816 147.861 67.8242 150.268 66.9219C152.66 66.0332 154.513 65.0215 155.825 63.8867Z" fill="#D4D4D4"/>
</svg>
