<svg width="63" height="26" viewBox="0 0 63 26" fill="none" xmlns="http://www.w3.org/2000/svg">
<path d="M50 14.5491C51.8667 14.5491 53.38 13.0358 53.38 11.1691C53.38 9.30234 51.8667 7.78906 50 7.78906C48.1333 7.78906 46.62 9.30234 46.62 11.1691C46.62 13.0358 48.1333 14.5491 50 14.5491Z" stroke="#1C1C1C" stroke-width="1.5"/>
<path d="M40.9217 9.19734C43.0558 -0.184327 56.955 -0.173493 59.0783 9.20817C60.3242 14.7115 56.9008 19.3698 53.9 22.2515C51.7225 24.3532 48.2775 24.3532 46.0892 22.2515C43.0992 19.3698 39.6758 14.7007 40.9217 9.19734Z" stroke="#1C1C1C" stroke-width="1.5"/>
<path d="M23.8009 19.8573C23.8009 20.2473 23.7142 20.6482 23.53 21.0382C23.3459 21.4282 23.1075 21.7965 22.7934 22.1432C22.2625 22.7282 21.6775 23.1507 21.0167 23.4215C20.3667 23.6923 19.6625 23.8332 18.9042 23.8332C17.7992 23.8332 16.6184 23.5732 15.3725 23.0423C14.1267 22.5115 12.8809 21.7965 11.6459 20.8973C10.4 19.9873 9.21919 18.9798 8.09252 17.864C6.97669 16.7373 5.96919 15.5565 5.07002 14.3215C4.18169 13.0865 3.46669 11.8515 2.94669 10.6273C2.42669 9.39234 2.16669 8.2115 2.16669 7.08484C2.16669 6.34817 2.29669 5.644 2.55669 4.994C2.81669 4.33317 3.22835 3.7265 3.80252 3.18484C4.49585 2.50234 5.25419 2.1665 6.05585 2.1665C6.35919 2.1665 6.66252 2.2315 6.93335 2.3615C7.21502 2.4915 7.46419 2.6865 7.65919 2.96817L10.1725 6.51067C10.3675 6.7815 10.5084 7.03067 10.6059 7.269C10.7034 7.4965 10.7575 7.724 10.7575 7.92984C10.7575 8.18984 10.6817 8.44984 10.53 8.699C10.3892 8.94817 10.1834 9.20817 9.92335 9.46817L9.10002 10.324C8.98085 10.4432 8.92669 10.584 8.92669 10.7573C8.92669 10.844 8.93752 10.9198 8.95919 11.0065C8.99169 11.0932 9.02419 11.1582 9.04585 11.2232C9.24085 11.5807 9.57669 12.0465 10.0534 12.6098C10.5409 13.1732 11.0609 13.7473 11.6242 14.3215C12.2092 14.8957 12.7725 15.4265 13.3467 15.914C13.91 16.3907 14.3759 16.7157 14.7442 16.9107C14.7984 16.9323 14.8634 16.9648 14.9392 16.9973C15.0259 17.0298 15.1125 17.0407 15.21 17.0407C15.3942 17.0407 15.535 16.9757 15.6542 16.8565L16.4775 16.044C16.7484 15.7732 17.0084 15.5673 17.2575 15.4373C17.5067 15.2857 17.7559 15.2098 18.0267 15.2098C18.2325 15.2098 18.4492 15.2532 18.6875 15.3507C18.9259 15.4482 19.175 15.589 19.4459 15.7732L23.0317 18.319C23.3134 18.514 23.5084 18.7415 23.6275 19.0123C23.7359 19.2832 23.8009 19.554 23.8009 19.8573Z" stroke="#1C1C1C" stroke-width="1.5" stroke-miterlimit="10"/>
</svg>
