<svg width="159" height="58" viewBox="0 0 159 58" fill="none" xmlns="http://www.w3.org/2000/svg">
<g clip-path="url(#clip0_199_1592)">
<path d="M117.359 14.3183H117.249V43.7658H117.359V14.3183Z" fill="#58595B"/>
<mask id="mask0_199_1592" style="mask-type:luminance" maskUnits="userSpaceOnUse" x="124" y="13" width="21" height="28">
<path d="M127.441 16.4778C125.581 18.2165 124.637 20.4321 124.637 23.0684C124.637 25.256 125.276 27.3032 126.525 29.1823C127.608 30.7809 129.494 32.8281 132.354 35.4364L136.794 39.6431C137.599 40.2602 138.765 40.12 139.404 39.3908C140.098 38.6056 140.042 37.3995 139.293 36.6704C136.989 34.567 137.35 34.8755 135.047 32.7721C132.659 30.6127 130.993 28.7897 130.077 27.3312C129.217 25.9851 128.772 24.5829 128.772 23.1806C128.772 21.5539 129.328 20.2639 130.438 19.2262C131.604 18.1606 132.937 17.6557 134.575 17.6557C136.184 17.6557 137.655 18.0763 138.904 18.9177C139.682 19.4787 140.487 20.2358 141.319 21.2174C141.319 21.2174 141.319 21.2174 141.292 21.2174C141.514 21.5259 141.902 22.1149 142.069 22.9843C142.263 24.1061 141.93 25.0035 141.764 25.3401C142.402 25.3401 143.289 25.0315 144.011 24.2463C144.733 23.433 145.649 20.4321 143.678 18.0763C143.178 17.4874 142.68 16.7863 141.125 15.7486C139.265 14.5146 136.961 13.8696 134.352 13.8696C131.632 13.8696 129.3 14.7671 127.441 16.4778Z" fill="white"/>
</mask>
<g mask="url(#mask0_199_1592)">
<path d="M145.677 13.8696H124.637V40.2321H145.677V13.8696Z" fill="url(#paint0_linear_199_1592)"/>
</g>
<mask id="mask1_199_1592" style="mask-type:luminance" maskUnits="userSpaceOnUse" x="124" y="13" width="21" height="13">
<path d="M127.441 16.4778C125.581 18.2165 124.637 20.4321 124.637 23.0684C124.637 24.022 124.748 24.9474 124.998 25.8449C125.081 24.8633 125.359 23.1806 126.497 21.5259C129.161 17.6837 134.047 17.6557 134.575 17.6557C136.184 17.6557 137.655 18.0763 138.904 18.9177C139.682 19.4787 140.487 20.2358 141.319 21.2174C141.319 21.2174 141.319 21.2174 141.292 21.2174C141.514 21.5259 141.902 22.1149 142.069 22.9843C142.263 24.1061 141.93 25.0036 141.764 25.3401C142.402 25.3401 143.289 25.0315 144.011 24.2463C144.733 23.433 145.649 20.4321 143.678 18.0763C143.178 17.4874 142.68 16.7863 141.125 15.7486C139.265 14.5146 136.961 13.8696 134.352 13.8696C131.632 13.8696 129.3 14.7671 127.441 16.4778Z" fill="white"/>
</mask>
<g mask="url(#mask1_199_1592)">
<path d="M145.677 13.8696H124.637V25.8449H145.677V13.8696Z" fill="url(#paint1_linear_199_1592)"/>
</g>
<mask id="mask2_199_1592" style="mask-type:luminance" maskUnits="userSpaceOnUse" x="138" y="13" width="21" height="32">
<path d="M149.229 13.8696C146.592 13.8696 144.316 14.4865 142.456 15.7486C141.929 16.1132 141.513 16.4217 141.179 16.7302C141.068 16.8143 140.957 16.9265 140.874 17.0106C140.458 17.4033 140.18 17.7679 139.93 18.0763C137.96 20.4042 138.849 23.433 139.597 24.2463C140.319 25.0315 141.207 25.3401 141.846 25.3401C141.707 25.0036 141.346 24.1061 141.54 22.9843C141.679 22.1149 142.096 21.5259 142.318 21.2174C143.123 20.2358 143.928 19.4506 144.733 18.9177C145.982 18.0763 147.452 17.6557 149.062 17.6557C150.673 17.6557 152.033 18.1606 153.199 19.2262C154.336 20.2639 154.863 21.5539 154.863 23.1806C154.863 24.5548 154.419 25.9571 153.56 27.3314C152.644 28.7616 150.978 30.5845 148.591 32.7721L140.596 40.821C140.596 40.821 140.596 40.821 140.569 40.8491C140.235 41.1857 140.013 41.6624 140.013 42.1953C140.013 43.2611 140.874 44.1304 141.929 44.1304C142.429 44.1304 142.901 43.9341 143.234 43.5976L143.262 43.5695L143.289 43.5415L151.283 35.4645C154.142 32.8562 156.029 30.809 157.112 29.2103C158.361 27.3314 159 25.256 159 23.0965C159 20.4603 158.056 18.2447 156.196 16.5058C154.308 14.7671 151.977 13.8696 149.229 13.8696Z" fill="white"/>
</mask>
<g mask="url(#mask2_199_1592)">
<path d="M128.328 17.4313L140.403 50.9454L168.577 40.5686L156.501 7.05453L128.328 17.4313Z" fill="url(#paint2_linear_199_1592)"/>
</g>
<path d="M14.6002 14.3181C10.9085 14.3181 7.71647 15.5801 5.02403 17.992C4.80198 18.1883 4.57992 18.3846 4.35786 18.6089C1.47113 21.4416 0 24.9472 0 29.0138C0 33.0523 1.49888 36.5299 4.30235 39.3906C6.24534 41.3536 8.46592 42.6719 10.9918 43.3168C12.1299 43.5973 13.3234 43.7376 14.5725 43.7376C15.8215 43.7376 17.0429 43.5973 18.1809 43.3168C18.514 43.2327 18.8193 43.1486 19.1247 43.0364C19.2357 42.9803 19.3744 42.9523 19.4855 42.8962H19.5132C21.2342 42.2792 22.7886 41.3256 24.232 40.0075L28.7286 43.2888L29.145 43.5974V14.2899L24.232 18.02C21.5117 15.5801 18.2919 14.3181 14.6002 14.3181ZM20.79 35.2959C19.4577 36.6421 17.9033 37.4554 16.1547 37.7358C15.6551 37.82 15.1553 37.876 14.6002 37.876C12.1576 37.876 10.1036 37.0628 8.38264 35.3239C6.66171 33.5852 5.85675 31.4818 5.85675 29.0419C5.85675 26.7982 6.52291 24.8631 7.96629 23.2083C8.10507 23.0401 8.2161 22.8999 8.38264 22.7316C10.1036 20.9929 12.1576 20.1795 14.6002 20.1795C17.0151 20.1795 19.0691 21.0208 20.79 22.7597C22.511 24.4985 23.3437 26.5738 23.3437 29.0138C23.3437 31.4818 22.511 33.557 20.79 35.2959Z" fill="#EC1C24"/>
<path d="M67.7278 43.0364C69.1434 43.5131 70.6423 43.7655 72.2245 43.7655C73.7789 43.7655 75.3055 43.5131 76.7489 43.0364C77.8036 42.6999 78.8029 42.2231 79.8021 41.606C82.0504 40.2038 83.8269 38.3248 85.076 35.9689L85.6311 34.9313L80.5515 32.0426L79.9687 33.1644C79.2192 34.5947 78.1645 35.7726 76.7767 36.614C75.3887 37.4554 73.8899 37.876 72.2522 37.876C70.8366 37.876 69.5042 37.5956 68.2829 36.9225L80.8291 25.7325L85.076 21.9463L84.5486 21.0769C83.2718 19.0295 81.4675 17.431 79.3858 16.2251C77.8591 15.3556 76.2214 14.7387 74.5006 14.5144C73.7789 14.374 73.0294 14.3181 72.28 14.3181C71.8913 14.3181 71.5305 14.346 71.1419 14.346C67.6445 14.5985 64.5912 16.0288 62.0376 18.5809C59.1786 21.4415 57.7075 24.9472 57.7075 29.0137C57.7075 31.3696 58.2349 33.529 59.2064 35.4922C59.9003 36.8944 60.8717 38.1845 62.0099 39.3625C63.6752 41.1012 65.5905 42.3352 67.7278 43.0364ZM63.592 27.6395C63.8418 25.7604 64.619 24.1338 66.0068 22.7316C66.2567 22.5073 66.4788 22.2548 66.7285 22.0585H66.7563C68.3107 20.7684 70.1427 20.1795 72.2245 20.1795C73.8898 20.1795 75.4165 20.6001 76.8043 21.4696L64.286 32.7157C63.7585 31.5377 63.5088 30.3319 63.5088 29.0137C63.5088 28.537 63.5365 28.0883 63.592 27.6395Z" fill="#EC1C24"/>
<path d="M49.1577 43.6816H54.9867V26.4056C54.9867 23.2646 53.9319 20.5161 51.7113 18.3005C49.5185 16.0849 46.7984 15.0192 43.6618 15.0192C40.9138 15.0192 38.4712 15.8886 36.4172 17.6836L32.3647 14.3742V43.7376H38.1937V26.4056C38.1937 24.8631 38.721 23.5731 39.7757 22.5073C40.8583 21.4136 42.1351 20.9088 43.634 20.9088C45.1607 20.9088 46.4374 21.4136 47.52 22.4793C48.6303 23.5731 49.1022 24.8912 49.1022 26.4336V43.6816H49.1577Z" fill="#EC1C24"/>
<path d="M109.974 43.7375L100.536 26.9384L107.614 14.3181H100.73L97.0665 20.8245L93.4025 14.3181H86.4911L93.6524 26.9384L84.1317 43.7375H91.0433L97.0665 33.0523L103.062 43.7375H109.974Z" fill="#EC1C24"/>
</g>
<defs>
<linearGradient id="paint0_linear_199_1592" x1="124.615" y1="27.07" x2="144.857" y2="27.07" gradientUnits="userSpaceOnUse">
<stop stop-color="#871719"/>
<stop offset="0.45" stop-color="#DA1F26"/>
<stop offset="1" stop-color="#F0564B"/>
</linearGradient>
<linearGradient id="paint1_linear_199_1592" x1="124.615" y1="19.8901" x2="144.857" y2="19.8901" gradientUnits="userSpaceOnUse">
<stop stop-color="#F0564B"/>
<stop offset="0.55" stop-color="#DA1F26"/>
<stop offset="1" stop-color="#871719"/>
</linearGradient>
<linearGradient id="paint2_linear_199_1592" x1="143.417" y1="15.0867" x2="152.701" y2="40.3336" gradientUnits="userSpaceOnUse">
<stop stop-color="#EC1C24"/>
<stop offset="0.1279" stop-color="#EC1C24"/>
<stop offset="0.204" stop-color="#CB2037"/>
<stop offset="0.5673" stop-color="#2E3191"/>
<stop offset="1" stop-color="#2E3191"/>
</linearGradient>
<clipPath id="clip0_199_1592">
<rect width="159" height="58" fill="white"/>
</clipPath>
</defs>
</svg>
