<svg width="175" height="103" viewBox="0 0 175 103" fill="none" xmlns="http://www.w3.org/2000/svg">
<path d="M104.953 27.8086C101.754 27.707 98.5632 27.597 95.3809 27.4785C81.89 26.8522 68.5091 26.6237 55.2383 26.793C47.875 37.0339 40.6048 47.3424 33.4277 57.7188C30.347 62.2721 27.3086 66.8932 24.3125 71.582C21.0117 76.7786 17.6178 81.9076 14.1309 86.9688C10.6439 92.0469 6.90299 96.8796 2.9082 101.467C2.48503 101.924 2.04492 102.085 1.58789 101.949C1.13086 101.814 0.783854 101.518 0.546875 101.061C0.292969 100.604 0.276042 100.121 0.496094 99.6133C3.8138 92.7578 7.65625 86.097 12.0234 79.6309C16.3906 73.1816 20.8932 66.8424 25.5312 60.6133C28.1549 57.0586 30.7279 53.5124 33.25 49.9746C38.7344 42.2728 44.2611 34.6048 49.8301 26.9707C39.9447 27.2923 29.9661 28.291 19.8945 29.9668C19.0312 30.0684 18.3711 29.8314 17.9141 29.2559C17.4401 28.6634 17.2624 28.0286 17.3809 27.3516C17.4993 26.6745 17.9818 26.2344 18.8281 26.0312C30.1693 24.1016 41.6712 22.8151 53.334 22.1719C58.3105 15.3672 63.3125 8.58789 68.3398 1.83398C68.8984 1.17383 69.5417 0.886068 70.2695 0.970703C71.0143 1.05534 71.5814 1.37695 71.9707 1.93555C72.377 2.49414 72.3346 3.14583 71.8438 3.89062C68.0013 9.15495 64.1673 14.4362 60.3418 19.7344C59.8171 20.4792 59.2923 21.2155 58.7676 21.9434C74.5098 21.334 90.0488 22.2819 105.385 24.7871C105.943 24.9056 106.282 25.2103 106.4 25.7012C106.536 26.1921 106.477 26.666 106.223 27.123C105.969 27.5632 105.546 27.7917 104.953 27.8086ZM77.125 53.0977C77.6497 52.7083 78.1576 52.6068 78.6484 52.793C79.1562 52.9792 79.5033 53.3177 79.6895 53.8086C79.8757 54.2826 79.7402 54.7565 79.2832 55.2305C76.778 57.5495 73.5195 59.4199 69.5078 60.8418C65.4961 62.2637 61.696 62.4245 58.1074 61.3242C57.0241 63.7448 55.5176 65.9368 53.5879 67.9004C51.6751 69.847 49.4323 71.0996 46.8594 71.6582C45.099 71.929 43.7109 71.5651 42.6953 70.5664C41.6797 69.5677 41.028 68.2897 40.7402 66.7324C40.4355 65.1751 40.4863 63.6855 40.8926 62.2637C41.722 59.5384 43.0677 57.1263 44.9297 55.0273C46.7747 52.9115 49.0514 51.4134 51.7598 50.5332C51.946 50.4147 52.1406 50.3301 52.3438 50.2793C52.4453 50.2624 52.5384 50.2539 52.623 50.2539C52.6908 50.2539 52.7669 50.2539 52.8516 50.2539C52.9362 50.2201 53.0208 50.1947 53.1055 50.1777C53.224 50.127 53.3509 50.0931 53.4863 50.0762C53.9095 50.0254 54.2904 50.0677 54.6289 50.2031C56.2708 50.4062 57.498 51.1003 58.3105 52.2852C59.123 53.4531 59.487 54.8919 59.4023 56.6016C60.3333 57.0247 61.3066 57.3548 62.3223 57.5918C63.3548 57.8118 64.2266 57.9134 64.9375 57.8965C69.5586 57.7611 73.6211 56.1615 77.125 53.0977ZM46.25 66.8086C47.8411 66.25 49.2715 65.3529 50.541 64.1172C51.8275 62.8646 52.8346 61.485 53.5625 59.9785C53.7487 59.5892 53.9434 59.166 54.1465 58.709C53.8079 58.3704 53.4948 58.0065 53.207 57.6172C52.7839 56.957 52.6569 56.3561 52.8262 55.8145C53.0124 55.2728 53.3678 54.8496 53.8926 54.5449C53.8249 54.5449 53.7487 54.5449 53.6641 54.5449C50.4648 55.6283 48.1374 57.7272 46.6816 60.8418C46.6139 60.9941 46.487 61.3919 46.3008 62.0352C46.1146 62.6784 45.9538 63.3893 45.8184 64.168C45.666 64.9466 45.6068 65.6068 45.6406 66.1484C45.6745 66.6732 45.8776 66.8932 46.25 66.8086ZM110.463 53.0723C110.598 53.0384 110.708 53.0553 110.793 53.123C110.878 53.1908 110.928 53.2923 110.945 53.4277C110.962 53.5462 110.928 53.6562 110.844 53.7578C109.964 54.8919 108.491 56.3307 106.426 58.0742C104.378 59.8008 102.194 61.1719 99.875 62.1875C97.556 63.1862 95.5586 63.1608 93.8828 62.1113C92.1562 60.8757 91.5384 59.0052 92.0293 56.5C88.8132 59.5977 86.054 62.2214 83.752 64.3711C81.4499 66.5039 79.5456 68.1374 78.0391 69.2715C76.5326 70.4056 75.026 71.1673 73.5195 71.5566C72.013 71.946 70.7858 71.472 69.8379 70.1348C68.7376 68.2051 68.6868 65.9792 69.6855 63.457C70.6842 60.918 72.0892 58.4974 73.9004 56.1953C75.7116 53.8763 77.2773 52.099 78.5977 50.8633C79.4102 50.1862 80.2142 50.0085 81.0098 50.3301C81.8223 50.6348 82.3724 51.1849 82.6602 51.9805C82.9648 52.776 82.7617 53.5547 82.0508 54.3164C80.7982 55.5521 79.6895 56.8978 78.7246 58.3535C77.7598 59.8092 76.8542 61.2988 76.0078 62.8223C75.9232 62.9408 75.7624 63.1523 75.5254 63.457C75.2884 63.7617 75.0514 64.0918 74.8145 64.4473C74.5605 64.8027 74.3743 65.1074 74.2559 65.3613C74.1204 65.6152 74.1289 65.7507 74.2812 65.7676C74.4167 65.7845 74.7552 65.6068 75.2969 65.2344C77.2266 63.8802 79.0462 62.3906 80.7559 60.7656C80.8236 60.7148 80.8913 60.6556 80.959 60.5879C81.416 60.1647 81.9661 59.6315 82.6094 58.9883C83.7604 57.8203 85.0723 56.6016 86.5449 55.332C88.0176 54.0625 89.5156 53.1146 91.0391 52.4883C92.5625 51.862 93.959 51.9212 95.2285 52.666C95.5501 52.8861 95.821 53.1654 96.041 53.5039C96.2611 53.8424 96.3626 54.2148 96.3457 54.6211C96.2611 56.4831 96.7604 57.5326 97.8438 57.7695C98.944 57.9896 100.315 57.7611 101.957 57.084C103.616 56.4069 105.241 55.6367 106.832 54.7734C108.322 53.9779 109.532 53.4108 110.463 53.0723ZM125.697 54.7988C126.07 55.1035 126.29 55.4844 126.357 55.9414C126.442 56.3984 126.366 56.8132 126.129 57.1855C125.892 57.541 125.494 57.7018 124.936 57.668C124.292 57.6172 123.658 57.5495 123.031 57.4648C122.117 57.3294 121.212 57.2617 120.314 57.2617C119.434 57.2448 118.512 57.4225 117.547 57.7949C115.99 58.4212 114.568 59.2676 113.281 60.334C111.013 62.3991 108.956 64.6504 107.111 67.0879C106.874 67.5957 106.629 68.112 106.375 68.6367C105.833 69.9062 105.207 71.1165 104.496 72.2676C103.785 73.4186 102.863 74.3073 101.729 74.9336C101.17 75.2214 100.628 75.2637 100.104 75.0605C99.5618 74.8405 99.1895 74.4258 98.9863 73.8164C98.597 72.1914 98.7663 70.5833 99.4941 68.9922C100.205 67.401 101.051 65.903 102.033 64.498C102.321 64.0579 102.592 63.6348 102.846 63.2285C104.064 61.2819 105.309 59.3438 106.578 57.4141C107.882 55.4674 109.151 53.4954 110.387 51.498C111.03 50.584 111.809 50.1777 112.723 50.2793C113.637 50.3639 114.356 50.7786 114.881 51.5234C115.406 52.2513 115.406 53.1146 114.881 54.1133C114.813 54.2318 114.745 54.3503 114.678 54.4688C114.61 54.5872 114.542 54.6973 114.475 54.7988C116.286 53.6986 118.139 53.0892 120.035 52.9707C121.931 52.8522 123.818 53.4616 125.697 54.7988ZM172.822 55.5352C167.846 57.2617 163.343 59.0814 159.314 60.9941C155.303 62.9069 151.105 65.3444 146.721 68.3066C147.516 69.5592 147.914 70.9811 147.914 72.5723C147.846 76.4486 146.162 79.5547 142.861 81.8906C141.846 82.6693 140.492 83.5495 138.799 84.5312C137.106 85.5299 135.329 86.3255 133.467 86.918C131.605 87.5273 129.929 87.6374 128.439 87.248C126.933 86.8757 125.875 85.7077 125.266 83.7441C124.842 81.8652 125.35 79.9863 126.789 78.1074C128.228 76.2285 130.014 74.4935 132.146 72.9023C134.262 71.2943 136.124 69.9824 137.732 68.9668C138.088 68.7298 138.401 68.5182 138.672 68.332C138.52 68.1628 138.376 67.9935 138.24 67.8242C137.275 66.6562 136.514 65.5221 135.955 64.4219C135.38 63.3047 134.973 62.0013 134.736 60.5117C134.432 57.651 135.236 55.222 137.148 53.2246C139.044 51.2103 141.253 49.8392 143.775 49.1113C144.842 48.8574 145.663 49.0267 146.238 49.6191C146.814 50.1947 147.085 50.9225 147.051 51.8027C147.017 52.6829 146.619 53.4362 145.857 54.0625C143.894 55.6029 142.675 56.9909 142.201 58.2266C141.744 59.4453 141.753 60.5964 142.227 61.6797C142.717 62.763 143.411 63.8379 144.309 64.9043C149.031 62.0944 153.525 59.75 157.791 57.8711C162.074 55.9922 166.805 54.1979 171.984 52.4883C172.645 52.319 173.144 52.4375 173.482 52.8438C173.838 53.25 173.973 53.7324 173.889 54.291C173.804 54.8496 173.449 55.2643 172.822 55.5352ZM139.916 78.3359C141.541 76.931 142.43 75.653 142.582 74.502C142.734 73.3509 142.489 72.3861 141.846 71.6074C139.73 73.0462 137.699 74.5781 135.752 76.2031C135.566 76.3555 135.388 76.5078 135.219 76.6602C134.051 77.5911 132.959 78.6068 131.943 79.707C129.692 82.4154 130.056 83.2109 133.035 82.0938C135.997 80.9935 138.291 79.7409 139.916 78.3359Z" fill="#D4D4D4"/>
</svg>
